<?xml version="1.0" encoding="utf-8"?><svg viewBox="0 0 140 24" xmlns="http://www.w3.org/2000/svg" xmlns:xlink="http://www.w3.org/1999/xlink"><style>:root>svg{display:none}:root>svg:target{display:block}</style><svg fill="none" viewBox="0 0 140 23" id="dark_logo" xmlns="http://www.w3.org/2000/svg"><circle cx="8.5" cy="11" r="8" stroke="#333"/><path d="M25.84 17.58c.747 0 1.36-.12 1.84-.36.493-.253.74-.673.74-1.26 0-.28-.047-.52-.14-.72-.08-.2-.22-.38-.42-.54-.2-.16-.467-.313-.8-.46-.32-.147-.72-.32-1.2-.52a30 30 0 0 1-1.1-.48 5.163 5.163 0 0 1-.92-.58 2.65 2.65 0 0 1-.64-.8c-.16-.307-.24-.68-.24-1.12 0-.84.313-1.52.94-2.04.64-.52 1.513-.78 2.62-.78.707 0 1.287.06 1.74.18.467.12.793.227.98.32l-.3 1.16a7.592 7.592 0 0 0-.82-.32c-.373-.133-.927-.2-1.66-.2-.293 0-.573.033-.84.1a1.93 1.93 0 0 0-.68.28c-.2.12-.36.28-.48.48-.12.187-.18.42-.18.7 0 .28.053.52.16.72.107.2.26.38.46.54.213.147.467.287.76.42.307.133.653.28 1.04.44.4.16.78.327 1.14.5.373.16.7.36.98.6.28.227.507.507.68.84.173.32.26.727.26 1.22 0 .933-.353 1.64-1.06 2.12-.693.48-1.647.72-2.86.72-.907 0-1.6-.08-2.08-.24-.48-.147-.8-.26-.96-.34l.34-1.18c.04.027.127.073.26.14.133.053.313.12.54.2.227.067.493.127.8.18.32.053.687.08 1.1.08Zm7.735.92h-1.3V8.16h1.3V18.5Zm.3-13.46c0 .307-.094.553-.28.74a.963.963 0 0 1-.68.26.963.963 0 0 1-.68-.26c-.187-.187-.28-.433-.28-.74s.093-.547.28-.72a.926.926 0 0 1 .68-.28c.266 0 .493.093.68.28.186.173.28.413.28.72Zm3.146 3.48a29.02 29.02 0 0 1 1.5-.36c.626-.133 1.433-.2 2.42-.2 1.306 0 2.253.38 2.84 1.14.066-.053.193-.14.38-.26.2-.133.446-.267.74-.4a5.707 5.707 0 0 1 1.02-.34c.4-.093.84-.14 1.32-.14.786 0 1.42.12 1.9.36.493.227.873.553 1.14.98.266.413.446.913.54 1.5.093.587.14 1.227.14 1.92v5.78h-1.3v-5.36c0-.68-.034-1.267-.1-1.76-.054-.507-.174-.92-.36-1.24a1.635 1.635 0 0 0-.76-.74c-.334-.173-.767-.26-1.3-.26-.4 0-.767.04-1.1.12a4.165 4.165 0 0 0-1.44.58 9.621 9.621 0 0 0-.32.24c.12.347.206.74.26 1.18.066.427.1.88.1 1.36v5.88h-1.3v-5.36c0-.68-.034-1.267-.1-1.76-.054-.507-.174-.92-.36-1.24a1.723 1.723 0 0 0-.8-.74c-.334-.173-.78-.26-1.34-.26-.627 0-1.16.033-1.6.1-.427.067-.7.127-.82.18v9.08h-1.3V8.52Zm18.565 8.12c.12.093.267.193.44.3.187.107.4.207.64.3s.5.173.78.24c.28.053.574.08.88.08.64 0 1.174-.107 1.6-.32a2.92 2.92 0 0 0 1.06-.9 3.93 3.93 0 0 0 .58-1.34c.12-.52.18-1.067.18-1.64 0-1.36-.34-2.4-1.02-3.12-.68-.733-1.58-1.1-2.7-1.1-.64 0-1.16.033-1.56.1-.386.053-.68.113-.88.18v7.22Zm0 5.56h-1.3V8.52c.387-.133.88-.26 1.48-.38s1.36-.18 2.28-.18c.76 0 1.447.127 2.06.38.627.24 1.16.593 1.6 1.06.454.467.8 1.033 1.04 1.7.254.667.38 1.42.38 2.26a7.12 7.12 0 0 1-.32 2.18c-.2.653-.5 1.22-.9 1.7a4.22 4.22 0 0 1-1.48 1.1c-.573.267-1.233.4-1.98.4-.68 0-1.273-.093-1.78-.28-.493-.2-.853-.387-1.08-.56v4.3Zm12.98-3.52a4.234 4.234 0 0 1-1.16-.18 2.114 2.114 0 0 1-.82-.44 2.209 2.209 0 0 1-.5-.8c-.106-.333-.16-.747-.16-1.24V3.22l1.3-.24v13c0 .32.027.58.08.78.067.187.16.34.28.46.12.107.274.187.46.24.2.053.434.1.7.14l-.18 1.08Zm1.858-5.36c0-.907.127-1.693.38-2.36.267-.68.607-1.247 1.02-1.7a4.019 4.019 0 0 1 1.44-1 4.348 4.348 0 0 1 1.68-.34c1.267 0 2.274.413 3.02 1.24.76.827 1.14 2.1 1.14 3.82 0 .107-.006.213-.02.32 0 .107-.006.207-.02.3h-7.26c.04 1.267.354 2.24.94 2.92.587.68 1.52 1.02 2.8 1.02.707 0 1.267-.067 1.68-.2.414-.133.714-.247.9-.34l.24 1.12c-.186.107-.54.233-1.06.38-.506.147-1.106.22-1.8.22-.906 0-1.68-.133-2.32-.4a4.153 4.153 0 0 1-1.58-1.12 4.435 4.435 0 0 1-.9-1.7 8.066 8.066 0 0 1-.28-2.18Zm7.34-.82c-.026-1.08-.28-1.92-.76-2.52-.48-.6-1.16-.9-2.04-.9-.466 0-.886.093-1.26.28-.36.187-.68.44-.96.76-.266.307-.48.667-.64 1.08a4.695 4.695 0 0 0-.26 1.3h5.92Z" fill="#333"/><rect x="86.5" y="3" width="31" height="16" rx="8" stroke="#333"/><circle cx="131.5" cy="11" r="8" stroke="#333"/></svg><svg fill="none" viewBox="0 0 24 24" id="facebook" xmlns="http://www.w3.org/2000/svg"><g clip-path="url(#ba)"><path d="M15.402 21v-6.966h2.333l.349-2.708h-2.682V9.598c0-.784.218-1.319 1.342-1.319h1.434V5.857a19.188 19.188 0 0 0-2.09-.107c-2.067 0-3.482 1.262-3.482 3.58v1.996h-2.338v2.708h2.338V21H4a1 1 0 0 1-1-1V4a1 1 0 0 1 1-1h16a1 1 0 0 1 1 1v16a1 1 0 0 1-1 1h-4.598Z" fill="#fff"/></g><defs><clipPath id="ba"><path fill="#fff" d="M0 0h24v24H0z"/></clipPath></defs></svg><svg fill="none" viewBox="0 0 24 24" id="instagram" xmlns="http://www.w3.org/2000/svg"><g clip-path="url(#ca)"><path d="M12 2c2.717 0 3.056.01 4.122.06 1.065.05 1.79.217 2.428.465.66.254 1.216.598 1.772 1.153.509.5.902 1.105 1.153 1.772.247.637.415 1.363.465 2.428.047 1.066.06 1.405.06 4.122 0 2.717-.01 3.056-.06 4.122-.05 1.065-.218 1.79-.465 2.428a4.883 4.883 0 0 1-1.153 1.772c-.5.508-1.105.902-1.772 1.153-.637.247-1.363.415-2.428.465-1.066.047-1.405.06-4.122.06-2.717 0-3.056-.01-4.122-.06-1.065-.05-1.79-.218-2.428-.465a4.89 4.89 0 0 1-1.772-1.153 4.904 4.904 0 0 1-1.153-1.772c-.248-.637-.415-1.363-.465-2.428C2.013 15.056 2 14.717 2 12c0-2.717.01-3.056.06-4.122.05-1.066.217-1.79.465-2.428a4.88 4.88 0 0 1 1.153-1.772A4.897 4.897 0 0 1 5.45 2.525c.638-.248 1.362-.415 2.428-.465C8.944 2.013 9.283 2 12 2Zm0 5a5 5 0 1 0 0 10 5 5 0 0 0 0-10Zm6.5-.25a1.25 1.25 0 1 0-2.5 0 1.25 1.25 0 0 0 2.5 0ZM12 9a3 3 0 1 1 0 6 3 3 0 0 1 0-6Z" fill="#fff"/></g><defs><clipPath id="ca"><path fill="#fff" d="M0 0h24v24H0z"/></clipPath></defs></svg><svg fill="none" viewBox="0 0 140 23" id="light_logo" xmlns="http://www.w3.org/2000/svg"><circle cx="8.5" cy="11" r="8" stroke="#fff"/><path d="M25.84 17.58c.747 0 1.36-.12 1.84-.36.493-.253.74-.673.74-1.26 0-.28-.047-.52-.14-.72-.08-.2-.22-.38-.42-.54-.2-.16-.467-.313-.8-.46-.32-.147-.72-.32-1.2-.52a30 30 0 0 1-1.1-.48 5.163 5.163 0 0 1-.92-.58 2.65 2.65 0 0 1-.64-.8c-.16-.307-.24-.68-.24-1.12 0-.84.313-1.52.94-2.04.64-.52 1.513-.78 2.62-.78.707 0 1.287.06 1.74.18.467.12.793.227.98.32l-.3 1.16a7.592 7.592 0 0 0-.82-.32c-.373-.133-.927-.2-1.66-.2-.293 0-.573.033-.84.1a1.93 1.93 0 0 0-.68.28c-.2.12-.36.28-.48.48-.12.187-.18.42-.18.7 0 .28.053.52.16.72.107.2.26.38.46.54.213.147.467.287.76.42.307.133.653.28 1.04.44.4.16.78.327 1.14.5.373.16.7.36.98.6.28.227.507.507.68.84.173.32.26.727.26 1.22 0 .933-.353 1.64-1.06 2.12-.693.48-1.647.72-2.86.72-.907 0-1.6-.08-2.08-.24-.48-.147-.8-.26-.96-.34l.34-1.18c.04.027.127.073.26.14.133.053.313.12.54.2.227.067.493.127.8.18.32.053.687.08 1.1.08Zm7.735.92h-1.3V8.16h1.3V18.5Zm.3-13.46c0 .307-.094.553-.28.74a.963.963 0 0 1-.68.26.963.963 0 0 1-.68-.26c-.187-.187-.28-.433-.28-.74s.093-.547.28-.72a.926.926 0 0 1 .68-.28c.266 0 .493.093.68.28.186.173.28.413.28.72Zm3.146 3.48a29.02 29.02 0 0 1 1.5-.36c.626-.133 1.433-.2 2.42-.2 1.306 0 2.253.38 2.84 1.14.066-.053.193-.14.38-.26.2-.133.446-.267.74-.4a5.707 5.707 0 0 1 1.02-.34c.4-.093.84-.14 1.32-.14.786 0 1.42.12 1.9.36.493.227.873.553 1.14.98.266.413.446.913.54 1.5.093.587.14 1.227.14 1.92v5.78h-1.3v-5.36c0-.68-.034-1.267-.1-1.76-.054-.507-.174-.92-.36-1.24a1.635 1.635 0 0 0-.76-.74c-.334-.173-.767-.26-1.3-.26-.4 0-.767.04-1.1.12a4.165 4.165 0 0 0-1.44.58 9.621 9.621 0 0 0-.32.24c.12.347.206.74.26 1.18.066.427.1.88.1 1.36v5.88h-1.3v-5.36c0-.68-.034-1.267-.1-1.76-.054-.507-.174-.92-.36-1.24a1.723 1.723 0 0 0-.8-.74c-.334-.173-.78-.26-1.34-.26-.627 0-1.16.033-1.6.1-.427.067-.7.127-.82.18v9.08h-1.3V8.52Zm18.565 8.12c.12.093.267.193.44.3.187.107.4.207.64.3s.5.173.78.24c.28.053.574.08.88.08.64 0 1.174-.107 1.6-.32a2.92 2.92 0 0 0 1.06-.9 3.93 3.93 0 0 0 .58-1.34c.12-.52.18-1.067.18-1.64 0-1.36-.34-2.4-1.02-3.12-.68-.733-1.58-1.1-2.7-1.1-.64 0-1.16.033-1.56.1-.386.053-.68.113-.88.18v7.22Zm0 5.56h-1.3V8.52c.387-.133.88-.26 1.48-.38s1.36-.18 2.28-.18c.76 0 1.447.127 2.06.38.627.24 1.16.593 1.6 1.06.454.467.8 1.033 1.04 1.7.254.667.38 1.42.38 2.26a7.12 7.12 0 0 1-.32 2.18c-.2.653-.5 1.22-.9 1.7a4.22 4.22 0 0 1-1.48 1.1c-.573.267-1.233.4-1.98.4-.68 0-1.273-.093-1.78-.28-.493-.2-.853-.387-1.08-.56v4.3Zm12.98-3.52a4.234 4.234 0 0 1-1.16-.18 2.114 2.114 0 0 1-.82-.44 2.209 2.209 0 0 1-.5-.8c-.106-.333-.16-.747-.16-1.24V3.22l1.3-.24v13c0 .32.027.58.08.78.067.187.16.34.28.46.12.107.274.187.46.24.2.053.434.1.7.14l-.18 1.08Zm1.858-5.36c0-.907.127-1.693.38-2.36.267-.68.607-1.247 1.02-1.7a4.019 4.019 0 0 1 1.44-1 4.348 4.348 0 0 1 1.68-.34c1.267 0 2.274.413 3.02 1.24.76.827 1.14 2.1 1.14 3.82 0 .107-.006.213-.02.32 0 .107-.006.207-.02.3h-7.26c.04 1.267.354 2.24.94 2.92.587.68 1.52 1.02 2.8 1.02.707 0 1.267-.067 1.68-.2.414-.133.714-.247.9-.34l.24 1.12c-.186.107-.54.233-1.06.38-.506.147-1.106.22-1.8.22-.906 0-1.68-.133-2.32-.4a4.153 4.153 0 0 1-1.58-1.12 4.435 4.435 0 0 1-.9-1.7 8.066 8.066 0 0 1-.28-2.18Zm7.34-.82c-.026-1.08-.28-1.92-.76-2.52-.48-.6-1.16-.9-2.04-.9-.466 0-.886.093-1.26.28-.36.187-.68.44-.96.76-.266.307-.48.667-.64 1.08a4.695 4.695 0 0 0-.26 1.3h5.92Z" fill="#fff"/><rect x="86.5" y="3" width="31" height="16" rx="8" stroke="#fff"/><circle cx="131.5" cy="11" r="8" stroke="#fff"/></svg><svg fill="none" viewBox="0 0 24 24" id="login" xmlns="http://www.w3.org/2000/svg"><g clip-path="url(#ea)" stroke="#4C5866" stroke-width="2" stroke-linecap="round" stroke-linejoin="round"><path d="M15 3h4a2 2 0 0 1 2 2v14a2 2 0 0 1-2 2h-4M10 17l5-5-5-5M15 12H3"/></g><defs><clipPath id="ea"><path fill="#fff" d="M0 0h24v24H0z"/></clipPath></defs></svg><svg fill="none" viewBox="0 0 24 24" id="search" xmlns="http://www.w3.org/2000/svg"><g clip-path="url(#fa)" stroke="#4C5866" stroke-width="2" stroke-linecap="round" stroke-linejoin="round"><path d="M13 19a8 8 0 1 1 0-16 8 8 0 0 1 0 16ZM3 21l4.35-4.35"/></g><defs><clipPath id="fa"><path fill="#fff" transform="matrix(-1 0 0 1 24 0)" d="M0 0h24v24H0z"/></clipPath></defs></svg><svg fill="none" viewBox="0 0 24 24" id="twitter" xmlns="http://www.w3.org/2000/svg"><g clip-path="url(#ga)"><path d="M22.162 5.656a8.383 8.383 0 0 1-2.402.658A4.196 4.196 0 0 0 21.6 4c-.82.488-1.719.83-2.656 1.015a4.182 4.182 0 0 0-7.126 3.814 11.874 11.874 0 0 1-8.62-4.37 4.168 4.168 0 0 0-.566 2.103c0 1.45.738 2.731 1.86 3.481a4.168 4.168 0 0 1-1.894-.523v.052a4.185 4.185 0 0 0 3.355 4.101 4.211 4.211 0 0 1-1.89.072A4.185 4.185 0 0 0 7.97 16.65a8.395 8.395 0 0 1-6.191 1.732 11.83 11.83 0 0 0 6.41 1.88c7.693 0 11.9-6.373 11.9-11.9 0-.18-.005-.362-.013-.54a8.495 8.495 0 0 0 2.087-2.165l-.001-.001Z" fill="#fff"/></g><defs><clipPath id="ga"><path fill="#fff" d="M0 0h24v24H0z"/></clipPath></defs></svg><svg fill="none" viewBox="0 0 24 24" id="youtube" xmlns="http://www.w3.org/2000/svg"><g clip-path="url(#ha)"><path d="M21.543 6.498C22 8.28 22 12 22 12s0 3.72-.457 5.502c-.254.985-.997 1.76-1.938 2.022C17.896 20 12 20 12 20s-5.893 0-7.605-.476c-.945-.266-1.687-1.04-1.938-2.022C2 15.72 2 12 2 12s0-3.72.457-5.502c.254-.985.997-1.76 1.938-2.022C6.107 4 12 4 12 4s5.896 0 7.605.476c.945.266 1.687 1.04 1.938 2.022ZM10 15.5l6-3.5-6-3.5v7Z" fill="#fff"/></g><defs><clipPath id="ha"><path fill="#fff" d="M0 0h24v24H0z"/></clipPath></defs></svg></svg>